<svg width="21" height="20" viewBox="0 0 21 20" fill="none" xmlns="http://www.w3.org/2000/svg">
<path d="M18.6639 5.4448C17.7682 3.98849 16.5541 2.83589 15.0211 1.98678C13.488 1.13772 11.8148 0.714089 10.0003 0.715724C8.18603 0.717358 6.51319 1.144 4.98197 1.99583C3.45066 2.84757 2.23881 4.00235 1.34601 5.4604C0.453159 6.91854 0.0077526 8.51039 0.00947072 10.2358C0.0111889 11.9614 0.459901 13.5522 1.35538 15.0088C2.25104 16.4651 3.46519 17.6177 4.99819 18.4669C6.53129 19.3159 8.20484 19.7396 10.0191 19.7379C11.8333 19.7363 13.5062 19.3096 15.0375 18.4578C16.5683 17.6062 17.7802 16.4511 18.6732 14.9932C19.5658 13.5351 20.0112 11.9433 20.0095 10.2178C20.0078 8.4922 19.5592 6.90111 18.6639 5.4448ZM10.0164 16.9638C8.73157 16.9649 7.54636 16.6648 6.46073 16.0628C5.37519 15.4611 4.51497 14.6443 3.88028 13.6132C3.24546 12.5818 2.92755 11.4551 2.92634 10.233C2.92512 9.01107 3.24092 7.88381 3.87355 6.85126C4.50604 5.81871 5.36478 5.00046 6.44911 4.3968C7.53354 3.79315 8.71815 3.49074 10.0029 3.48958L10.0164 16.9638Z" fill="#E60505"/>
</svg>
