<svg width="20" height="20" viewBox="0 0 20 20" fill="none" xmlns="http://www.w3.org/2000/svg">
<path d="M18.2143 8.4705H12.1429C11.9456 8.4705 11.7857 8.3184 11.7857 8.13081V2.35624C11.7857 1.4183 10.9862 0.657837 10 0.657837C9.01385 0.657837 8.21429 1.4183 8.21429 2.35624V8.13081C8.21429 8.3184 8.05437 8.4705 7.85714 8.4705H1.78571C0.799561 8.4705 0 9.23096 0 10.1689C0 11.1068 0.799561 11.8673 1.78571 11.8673H7.85714C8.05437 11.8673 8.21429 12.0194 8.21429 12.207V17.9816C8.21429 18.9195 9.01385 19.68 10 19.68C10.9862 19.68 11.7857 18.9195 11.7857 17.9816V12.207C11.7857 12.0194 11.9456 11.8673 12.1429 11.8673H18.2143C19.2004 11.8673 20 11.1068 20 10.1689C20 9.23096 19.2004 8.4705 18.2143 8.4705Z" fill="#E60505"/>
</svg>
