<svg width="279" height="77" viewBox="0 0 279 77" fill="none" xmlns="http://www.w3.org/2000/svg">
<path d="M66.9943 0.511108C81.1352 0.511108 92.6 11.4143 92.6 24.8594C92.6 47.0829 46.2988 76.5996 46.2988 76.5996C46.2988 76.5996 0 48.1469 0 24.8592C0 8.11949 11.465 0.511108 25.6031 0.511108C34.1195 0.511108 41.6423 4.48297 46.2988 10.5642C50.956 4.48297 58.4801 0.511108 66.9943 0.511108Z" fill="#E60505"/>
<path d="M40 17.1159H41.5556V18.5029H40V24.051H41.5556V25.438H40V26.8251L54 26.8251V25.438L52.4444 25.438V24.051L54 24.051V18.5029H52.4444V17.1159H54V15.7288L40 15.7288V17.1159ZM50.8889 24.051V25.438H49.3333V24.051H50.8889ZM47.7778 24.051V25.438H46.2222V24.051H47.7778ZM44.6667 24.051V25.438H43.1111V24.051H44.6667ZM50.8889 17.1159V18.5029H49.3333V17.1159H50.8889ZM47.7778 17.1159V18.5029H46.2222V17.1159H47.7778ZM44.6667 17.1159V18.5029H43.1111V17.1159H44.6667Z" fill="white"/>
<path d="M68.854 11.0684H65.746C65.41 10.7155 65.2 10.2495 65.2 9.73683C65.2 8.63164 66.138 7.7395 67.3 7.7395C68.462 7.7395 69.4 8.63164 69.4 9.73683C69.4 10.2495 69.19 10.7155 68.854 11.0684ZM73.6 7.7395C75.147 7.7395 76.4 8.93124 76.4 10.4026V21.055H75V10.4026C75 9.67025 74.37 9.07105 73.6 9.07105C72.83 9.07105 72.2 9.67025 72.2 10.4026V18.3919C72.2 19.8633 70.947 21.055 69.4 21.055C67.853 21.055 66.6 19.8633 66.6 18.3919H65.9L65.2 11.7341H69.4L68.7 18.3919H68C68 19.1242 68.63 19.7234 69.4 19.7234C70.17 19.7234 70.8 19.1242 70.8 18.3919V10.4026C70.8 8.93124 72.053 7.7395 73.6 7.7395Z" fill="white"/>
<path d="M20 40.4749L25.7273 32.8488H13L18.7273 40.4749V44.9537H16.8182V46.1642H21.9091V44.9537H20V40.4749ZM17.2891 36.4803L15.4691 34.0593H23.2454L21.4382 36.4803H17.2891Z" fill="white"/>
<path d="M29.5455 32.8488H28.2728V41.6612C27.8909 41.4554 27.4709 41.3222 27 41.3222C25.6 41.3222 24.4546 42.4117 24.4546 43.7432C24.4546 45.0748 25.6 46.1642 27 46.1642C28.4 46.1642 29.5455 45.0748 29.5455 43.7432V35.2698H32.0909V32.8488H29.5455Z" fill="white"/>
<path d="M47.0909 51.8708H45.8182V60.6833C45.4364 60.4775 45.0164 60.3443 44.5455 60.3443C43.1455 60.3443 42 61.4338 42 62.7653C42 64.0969 43.1455 65.1863 44.5455 65.1863C45.9454 65.1863 47.0909 64.0969 47.0909 62.7653V54.2918H49.6364V51.8708H47.0909Z" fill="white"/>
<path d="M76.6609 39.5065C76.6609 38.9644 76.5809 38.4413 76.4309 37.9467C76.9409 37.5092 77.0809 36.7673 76.7209 36.1776C76.3609 35.5879 75.6209 35.3311 74.9609 35.5309C74.2009 34.7795 73.2209 34.2374 72.1209 33.9711C71.9809 33.3338 71.3809 32.8488 70.6609 32.8488C69.941 32.8488 69.341 33.3338 69.191 33.9806C68.101 34.2374 67.121 34.789 66.361 35.5309C65.701 35.3311 64.961 35.5879 64.601 36.1776C64.241 36.7673 64.381 37.5092 64.891 37.9467C64.741 38.4413 64.661 38.9644 64.661 39.5065C64.661 40.0486 64.741 40.5717 64.891 41.0663C64.381 41.5038 64.241 42.2457 64.601 42.8354C64.961 43.4251 65.701 43.6819 66.361 43.4821C66.661 43.777 66.991 44.0338 67.351 44.262L66.481 46.1642H67.571L68.231 44.7186C68.541 44.8517 68.861 44.9468 69.191 45.0324C69.341 45.6792 69.941 46.1642 70.6609 46.1642C71.3809 46.1642 71.9809 45.6792 72.1309 45.0324C72.4609 44.9563 72.7809 44.8517 73.0909 44.7186L73.7509 46.1642H74.8409L73.9709 44.262C74.3309 44.0338 74.6609 43.7675 74.9609 43.4726C75.6209 43.6723 76.3609 43.4251 76.7209 42.8259C77.0809 42.2362 76.9409 41.4943 76.4309 41.0568C76.5809 40.5717 76.6609 40.0486 76.6609 39.5065ZM71.9809 44.0718C71.7309 43.6248 71.2309 43.3109 70.6609 43.3109C70.091 43.3109 69.591 43.6248 69.341 44.0718C69.101 44.0052 68.861 43.9387 68.631 43.8435L69.831 41.228C70.081 41.3421 70.361 41.4087 70.6609 41.4087C70.9609 41.4087 71.2409 41.3421 71.4909 41.2375L72.6909 43.8531C72.4609 43.9387 72.2209 44.0052 71.9809 44.0718ZM72.2909 40.6003C72.5209 40.2959 72.6609 39.9155 72.6609 39.5065C72.6609 38.4603 71.7609 37.6043 70.6609 37.6043C69.561 37.6043 68.661 38.4603 68.661 39.5065C68.661 39.9155 68.801 40.2959 69.031 40.6003L67.761 43.368C67.551 43.2253 67.341 43.0636 67.151 42.8924C67.451 42.4549 67.491 41.8843 67.201 41.4087C66.911 40.9332 66.381 40.6859 65.841 40.7049C65.731 40.3149 65.661 39.925 65.661 39.5065C65.661 39.088 65.731 38.6981 65.841 38.3081C66.381 38.3271 66.911 38.0798 67.201 37.6043C67.491 37.1287 67.451 36.5581 67.161 36.1206C67.761 35.5594 68.511 35.1599 69.351 34.9412C69.591 35.3882 70.091 35.7021 70.6609 35.7021C71.2309 35.7021 71.7309 35.3882 71.9809 34.9412C72.8109 35.1599 73.5709 35.5594 74.1709 36.1206C73.8709 36.5581 73.8309 37.1287 74.1209 37.6043C74.4109 38.0798 74.9409 38.3271 75.4809 38.3081C75.5909 38.6981 75.6609 39.088 75.6609 39.5065C75.6609 39.925 75.5909 40.3149 75.4809 40.7049C74.9409 40.6859 74.4109 40.9332 74.1209 41.4087C73.8309 41.8843 73.8709 42.4549 74.1609 42.8924C73.9709 43.0636 73.7709 43.2253 73.5509 43.368L72.2909 40.6003Z" fill="white"/>
<path fill-rule="evenodd" clip-rule="evenodd" d="M22.4615 8.12V12.2171H23.5385H24.6154V13.2413V13.8252C24.9062 13.4769 25.52 13.2413 26.2308 13.2413C27.2215 13.2413 28.0292 13.7023 28.0292 14.2656H24.6154V15.9556C25.1108 16.181 25.6492 16.3141 26.2308 16.3141C28.3092 16.3141 30 14.706 30 12.7292V8.12H22.4615ZM24.6154 11.961C24.1739 11.961 23.8077 11.6127 23.8077 11.1928C23.8077 10.7728 24.1739 10.4246 24.6154 10.4246C25.0569 10.4246 25.4231 10.7728 25.4231 11.1928C25.4231 11.6127 25.0569 11.961 24.6154 11.961ZM27.8462 11.961C27.4046 11.961 27.0385 11.6127 27.0385 11.1928C27.0385 10.7728 27.4046 10.4246 27.8462 10.4246C28.2877 10.4246 28.6538 10.7728 28.6538 11.1928C28.6538 11.6127 28.2877 11.961 27.8462 11.961Z" fill="white"/>
<path fill-rule="evenodd" clip-rule="evenodd" d="M16 17.8505C16 19.8274 17.6908 21.4355 19.7692 21.4355C21.8477 21.4355 23.5385 19.8274 23.5385 17.8505V13.2413H16V17.8505ZM19.7692 19.3869C18.7785 19.3869 17.9708 18.926 17.9708 18.3627H21.5569C21.5677 18.926 20.76 19.3869 19.7692 19.3869ZM21.3846 15.5459C21.8261 15.5459 22.1923 15.8942 22.1923 16.3141C22.1923 16.7341 21.8261 17.0823 21.3846 17.0823C20.9431 17.0823 20.5769 16.7341 20.5769 16.3141C20.5769 15.8942 20.9431 15.5459 21.3846 15.5459ZM18.1538 15.5459C18.5954 15.5459 18.9615 15.8942 18.9615 16.3141C18.9615 16.7341 18.5954 17.0823 18.1538 17.0823C17.7123 17.0823 17.3462 16.7341 17.3462 16.3141C17.3462 15.8942 17.7123 15.5459 18.1538 15.5459Z" fill="white"/>
<path d="M110.74 38.88H111.874C112.33 38.88 112.708 38.82 113.008 38.7C113.308 38.568 113.566 38.364 113.782 38.088L120.964 28.998C121.264 28.614 121.576 28.35 121.9 28.206C122.236 28.05 122.656 27.972 123.16 27.972H127.336L118.57 38.79C118.054 39.45 117.52 39.918 116.968 40.194C117.364 40.338 117.718 40.542 118.03 40.806C118.354 41.058 118.66 41.394 118.948 41.814L127.984 54H123.718C123.142 54 122.71 53.922 122.422 53.766C122.146 53.598 121.912 53.358 121.72 53.046L114.358 43.434C114.13 43.11 113.866 42.882 113.566 42.75C113.266 42.618 112.834 42.552 112.27 42.552H110.74V54H105.898V27.972H110.74V38.88ZM144.874 35.532V54H142.156C141.568 54 141.196 53.73 141.04 53.19L140.734 51.714C139.978 52.482 139.144 53.106 138.232 53.586C137.32 54.054 136.246 54.288 135.01 54.288C134.002 54.288 133.108 54.12 132.328 53.784C131.56 53.436 130.912 52.95 130.384 52.326C129.856 51.702 129.454 50.964 129.178 50.112C128.914 49.248 128.782 48.3 128.782 47.268V35.532H133.228V47.268C133.228 48.396 133.486 49.272 134.002 49.896C134.53 50.508 135.316 50.814 136.36 50.814C137.128 50.814 137.848 50.646 138.52 50.31C139.192 49.962 139.828 49.488 140.428 48.888V35.532H144.874ZM153.782 27.252V54H149.336V27.252H153.782ZM164.368 54.288C162.76 54.288 161.524 53.838 160.66 52.938C159.808 52.026 159.382 50.772 159.382 49.176V38.862H157.492C157.252 38.862 157.048 38.784 156.88 38.628C156.712 38.472 156.628 38.238 156.628 37.926V36.162L159.598 35.676L160.534 30.636C160.594 30.396 160.708 30.21 160.876 30.078C161.044 29.946 161.26 29.88 161.524 29.88H163.828V35.694H168.76V38.862H163.828V48.87C163.828 49.446 163.966 49.896 164.242 50.22C164.53 50.544 164.92 50.706 165.412 50.706C165.688 50.706 165.916 50.676 166.096 50.616C166.288 50.544 166.45 50.472 166.582 50.4C166.726 50.328 166.852 50.262 166.96 50.202C167.068 50.13 167.176 50.094 167.284 50.094C167.416 50.094 167.524 50.13 167.608 50.202C167.692 50.262 167.782 50.358 167.878 50.49L169.21 52.65C168.562 53.19 167.818 53.598 166.978 53.874C166.138 54.15 165.268 54.288 164.368 54.288ZM187.518 35.532V54H184.8C184.212 54 183.84 53.73 183.684 53.19L183.378 51.714C182.622 52.482 181.788 53.106 180.876 53.586C179.964 54.054 178.89 54.288 177.654 54.288C176.646 54.288 175.752 54.12 174.972 53.784C174.204 53.436 173.556 52.95 173.028 52.326C172.5 51.702 172.098 50.964 171.822 50.112C171.558 49.248 171.426 48.3 171.426 47.268V35.532H175.872V47.268C175.872 48.396 176.13 49.272 176.646 49.896C177.174 50.508 177.96 50.814 179.004 50.814C179.772 50.814 180.492 50.646 181.164 50.31C181.836 49.962 182.472 49.488 183.072 48.888V35.532H187.518ZM196.12 38.736C196.696 37.632 197.38 36.768 198.172 36.144C198.964 35.508 199.9 35.19 200.98 35.19C201.832 35.19 202.516 35.376 203.032 35.748L202.744 39.078C202.684 39.294 202.594 39.45 202.474 39.546C202.366 39.63 202.216 39.672 202.024 39.672C201.844 39.672 201.574 39.642 201.214 39.582C200.866 39.522 200.524 39.492 200.188 39.492C199.696 39.492 199.258 39.564 198.874 39.708C198.49 39.852 198.142 40.062 197.83 40.338C197.53 40.602 197.26 40.926 197.02 41.31C196.792 41.694 196.576 42.132 196.372 42.624V54H191.926V35.532H194.536C194.992 35.532 195.31 35.616 195.49 35.784C195.67 35.94 195.79 36.228 195.85 36.648L196.12 38.736ZM220.988 50.004V54H205.742V27.972H210.584V50.004H220.988ZM230.966 35.244C232.334 35.244 233.576 35.466 234.692 35.91C235.82 36.354 236.78 36.984 237.572 37.8C238.376 38.616 238.994 39.612 239.426 40.788C239.858 41.964 240.074 43.278 240.074 44.73C240.074 46.194 239.858 47.514 239.426 48.69C238.994 49.866 238.376 50.868 237.572 51.696C236.78 52.524 235.82 53.16 234.692 53.604C233.576 54.048 232.334 54.27 230.966 54.27C229.586 54.27 228.332 54.048 227.204 53.604C226.076 53.16 225.11 52.524 224.306 51.696C223.514 50.868 222.896 49.866 222.452 48.69C222.02 47.514 221.804 46.194 221.804 44.73C221.804 43.278 222.02 41.964 222.452 40.788C222.896 39.612 223.514 38.616 224.306 37.8C225.11 36.984 226.076 36.354 227.204 35.91C228.332 35.466 229.586 35.244 230.966 35.244ZM230.966 50.85C232.502 50.85 233.636 50.334 234.368 49.302C235.112 48.27 235.484 46.758 235.484 44.766C235.484 42.774 235.112 41.256 234.368 40.212C233.636 39.168 232.502 38.646 230.966 38.646C229.406 38.646 228.248 39.174 227.492 40.23C226.748 41.274 226.376 42.786 226.376 44.766C226.376 46.746 226.748 48.258 227.492 49.302C228.248 50.334 229.406 50.85 230.966 50.85ZM259.553 35.532L252.227 54H248.195L240.869 35.532H244.541C244.877 35.532 245.153 35.61 245.369 35.766C245.597 35.922 245.747 36.12 245.819 36.36L249.383 46.224C249.575 46.8 249.743 47.364 249.887 47.916C250.031 48.468 250.157 49.02 250.265 49.572C250.385 49.02 250.517 48.468 250.661 47.916C250.805 47.364 250.979 46.8 251.183 46.224L254.819 36.36C254.903 36.12 255.053 35.922 255.269 35.766C255.485 35.61 255.743 35.532 256.043 35.532H259.553ZM273.258 42.642C273.258 42.066 273.174 41.526 273.006 41.022C272.85 40.506 272.61 40.056 272.286 39.672C271.962 39.288 271.548 38.988 271.044 38.772C270.552 38.544 269.976 38.43 269.316 38.43C268.032 38.43 267.018 38.796 266.274 39.528C265.542 40.26 265.074 41.298 264.87 42.642H273.258ZM264.78 45.324C264.852 46.272 265.02 47.094 265.284 47.79C265.548 48.474 265.896 49.044 266.328 49.5C266.76 49.944 267.27 50.28 267.858 50.508C268.458 50.724 269.118 50.832 269.838 50.832C270.558 50.832 271.176 50.748 271.692 50.58C272.22 50.412 272.676 50.226 273.06 50.022C273.456 49.818 273.798 49.632 274.086 49.464C274.386 49.296 274.674 49.212 274.95 49.212C275.322 49.212 275.598 49.35 275.778 49.626L277.056 51.246C276.564 51.822 276.012 52.308 275.4 52.704C274.788 53.088 274.146 53.4 273.474 53.64C272.814 53.868 272.136 54.03 271.44 54.126C270.756 54.222 270.09 54.27 269.442 54.27C268.158 54.27 266.964 54.06 265.86 53.64C264.756 53.208 263.796 52.578 262.98 51.75C262.164 50.91 261.522 49.878 261.054 48.654C260.586 47.418 260.352 45.99 260.352 44.37C260.352 43.11 260.556 41.928 260.964 40.824C261.372 39.708 261.954 38.742 262.71 37.926C263.478 37.098 264.408 36.444 265.5 35.964C266.604 35.484 267.846 35.244 269.226 35.244C270.39 35.244 271.464 35.43 272.448 35.802C273.432 36.174 274.278 36.72 274.986 37.44C275.694 38.148 276.246 39.024 276.642 40.068C277.05 41.1 277.254 42.282 277.254 43.614C277.254 44.286 277.182 44.742 277.038 44.982C276.894 45.21 276.618 45.324 276.21 45.324H264.78Z" fill="#E60505"/>
</svg>
