<svg width="279" height="80" viewBox="0 0 279 80" fill="none" xmlns="http://www.w3.org/2000/svg">
<path d="M66.9944 0C81.1352 0 92.6 11.4637 92.6 25.6C92.6 48.966 46.2988 80 46.2988 80C46.2988 80 0 50.0846 0 25.5998C0 7.99951 11.465 0 25.6031 0C34.1195 0 41.6423 4.17604 46.2988 10.5699C50.956 4.17604 58.4801 0 66.9944 0Z" fill="#25FF00"/>
<path d="M40 17.4584H41.5556V18.9167H40V24.75H41.5556V26.2084H40V27.6667L54 27.6667V26.2084H52.4444V24.75L54 24.75V18.9167H52.4444V17.4584H54V16H40V17.4584ZM50.8889 24.75V26.2084H49.3333V24.75H50.8889ZM47.7778 24.75V26.2084H46.2222V24.75H47.7778ZM44.6667 24.75V26.2084H43.1111V24.75H44.6667ZM50.8889 17.4584V18.9167H49.3333V17.4584H50.8889ZM47.7778 17.4584V18.9167H46.2222V17.4584H47.7778ZM44.6667 17.4584V18.9167H43.1111V17.4584H44.6667Z" fill="white"/>
<path d="M68.854 11.1H65.746C65.41 10.729 65.2 10.239 65.2 9.70001C65.2 8.53801 66.138 7.60001 67.3 7.60001C68.462 7.60001 69.4 8.53801 69.4 9.70001C69.4 10.239 69.19 10.729 68.854 11.1ZM73.6 7.60001C75.147 7.60001 76.4 8.85301 76.4 10.4V21.6H75V10.4C75 9.63001 74.37 9.00001 73.6 9.00001C72.83 9.00001 72.2 9.63001 72.2 10.4V18.8C72.2 20.347 70.947 21.6 69.4 21.6C67.853 21.6 66.6 20.347 66.6 18.8H65.9L65.2 11.8H69.4L68.7 18.8H68C68 19.57 68.63 20.2 69.4 20.2C70.17 20.2 70.8 19.57 70.8 18.8V10.4C70.8 8.85301 72.053 7.60001 73.6 7.60001Z" fill="white"/>
<path d="M20 42.0182L25.7273 34H13L18.7273 42.0182V46.7273H16.8182V48H21.9091V46.7273H20V42.0182ZM17.2891 37.8182L15.4691 35.2727H23.2455L21.4382 37.8182H17.2891Z" fill="white"/>
<path d="M29.5455 34H28.2727V43.2655C27.8909 43.0491 27.4709 42.9091 27 42.9091C25.6 42.9091 24.4546 44.0545 24.4546 45.4545C24.4546 46.8545 25.6 48 27 48C28.4 48 29.5455 46.8545 29.5455 45.4545V36.5455H32.0909V34H29.5455Z" fill="white"/>
<path d="M47.0909 54H45.8182V63.2655C45.4364 63.0491 45.0164 62.9091 44.5455 62.9091C43.1455 62.9091 42 64.0545 42 65.4545C42 66.8545 43.1455 68 44.5455 68C45.9455 68 47.0909 66.8545 47.0909 65.4545V56.5455H49.6364V54H47.0909Z" fill="white"/>
<path d="M76.6609 41C76.6609 40.43 76.5809 39.88 76.4309 39.36C76.9409 38.9 77.0809 38.12 76.7209 37.5C76.3609 36.88 75.6209 36.61 74.9609 36.82C74.2009 36.03 73.2209 35.46 72.1209 35.18C71.9809 34.51 71.3809 34 70.6609 34C69.9409 34 69.3409 34.51 69.1909 35.19C68.1009 35.46 67.1209 36.04 66.3609 36.82C65.7009 36.61 64.9609 36.88 64.6009 37.5C64.2409 38.12 64.3809 38.9 64.8909 39.36C64.7409 39.88 64.6609 40.43 64.6609 41C64.6609 41.57 64.7409 42.12 64.8909 42.64C64.3809 43.1 64.2409 43.88 64.6009 44.5C64.9609 45.12 65.7009 45.39 66.3609 45.18C66.6609 45.49 66.9909 45.76 67.3509 46L66.4809 48H67.5709L68.2309 46.48C68.5409 46.62 68.8609 46.72 69.1909 46.81C69.3409 47.49 69.9409 48 70.6609 48C71.3809 48 71.9809 47.49 72.1309 46.81C72.4609 46.73 72.7809 46.62 73.0909 46.48L73.7509 48H74.8409L73.9709 46C74.3309 45.76 74.6609 45.48 74.9609 45.17C75.6209 45.38 76.3609 45.12 76.7209 44.49C77.0809 43.87 76.9409 43.09 76.4309 42.63C76.5809 42.12 76.6609 41.57 76.6609 41ZM71.9809 45.8C71.7309 45.33 71.2309 45 70.6609 45C70.0909 45 69.5909 45.33 69.3409 45.8C69.1009 45.73 68.8609 45.66 68.6309 45.56L69.8309 42.81C70.0809 42.93 70.3609 43 70.6609 43C70.9609 43 71.2409 42.93 71.4909 42.82L72.6909 45.57C72.4609 45.66 72.2209 45.73 71.9809 45.8ZM72.2909 42.15C72.5209 41.83 72.6609 41.43 72.6609 41C72.6609 39.9 71.7609 39 70.6609 39C69.5609 39 68.6609 39.9 68.6609 41C68.6609 41.43 68.8009 41.83 69.0309 42.15L67.7609 45.06C67.5509 44.91 67.3409 44.74 67.1509 44.56C67.4509 44.1 67.4909 43.5 67.2009 43C66.9109 42.5 66.3809 42.24 65.8409 42.26C65.7309 41.85 65.6609 41.44 65.6609 41C65.6609 40.56 65.7309 40.15 65.8409 39.74C66.3809 39.76 66.9109 39.5 67.2009 39C67.4909 38.5 67.4509 37.9 67.1609 37.44C67.7609 36.85 68.5109 36.43 69.3509 36.2C69.5909 36.67 70.0909 37 70.6609 37C71.2309 37 71.7309 36.67 71.9809 36.2C72.8109 36.43 73.5709 36.85 74.1709 37.44C73.8709 37.9 73.8309 38.5 74.1209 39C74.4109 39.5 74.9409 39.76 75.4809 39.74C75.5909 40.15 75.6609 40.56 75.6609 41C75.6609 41.44 75.5909 41.85 75.4809 42.26C74.9409 42.24 74.4109 42.5 74.1209 43C73.8309 43.5 73.8709 44.1 74.1609 44.56C73.9709 44.74 73.7709 44.91 73.5509 45.06L72.2909 42.15Z" fill="white"/>
<path fill-rule="evenodd" clip-rule="evenodd" d="M22.4615 8V12.3077H23.5385H24.6154V13.3846V13.9985C24.9061 13.6323 25.52 13.3846 26.2308 13.3846C27.2215 13.3846 28.0292 13.8692 28.0292 14.4615H24.6154V16.2385C25.1108 16.4754 25.6492 16.6154 26.2308 16.6154C28.3092 16.6154 30 14.9246 30 12.8462V8H22.4615ZM24.6154 12.0385C24.1738 12.0385 23.8077 11.6723 23.8077 11.2308C23.8077 10.7892 24.1738 10.4231 24.6154 10.4231C25.0569 10.4231 25.4231 10.7892 25.4231 11.2308C25.4231 11.6723 25.0569 12.0385 24.6154 12.0385ZM27.8461 12.0385C27.4046 12.0385 27.0385 11.6723 27.0385 11.2308C27.0385 10.7892 27.4046 10.4231 27.8461 10.4231C28.2877 10.4231 28.6538 10.7892 28.6538 11.2308C28.6538 11.6723 28.2877 12.0385 27.8461 12.0385Z" fill="white"/>
<path fill-rule="evenodd" clip-rule="evenodd" d="M16 18.2307C16 20.3092 17.6908 22 19.7692 22C21.8477 22 23.5385 20.3092 23.5385 18.2307V13.3846H16V18.2307ZM19.7692 19.8461C18.7785 19.8461 17.9708 19.3615 17.9708 18.7692H21.5569C21.5677 19.3615 20.76 19.8461 19.7692 19.8461ZM21.3846 15.8077C21.8262 15.8077 22.1923 16.1738 22.1923 16.6154C22.1923 17.0569 21.8262 17.423 21.3846 17.423C20.9431 17.423 20.5769 17.0569 20.5769 16.6154C20.5769 16.1738 20.9431 15.8077 21.3846 15.8077ZM18.1538 15.8077C18.5954 15.8077 18.9615 16.1738 18.9615 16.6154C18.9615 17.0569 18.5954 17.423 18.1538 17.423C17.7123 17.423 17.3462 17.0569 17.3462 16.6154C17.3462 16.1738 17.7123 15.8077 18.1538 15.8077Z" fill="white"/>
<path d="M110.74 37.88H111.874C112.33 37.88 112.708 37.82 113.008 37.7C113.308 37.568 113.566 37.364 113.782 37.088L120.964 27.998C121.264 27.614 121.576 27.35 121.9 27.206C122.236 27.05 122.656 26.972 123.16 26.972H127.336L118.57 37.79C118.054 38.45 117.52 38.918 116.968 39.194C117.364 39.338 117.718 39.542 118.03 39.806C118.354 40.058 118.66 40.394 118.948 40.814L127.984 53H123.718C123.142 53 122.71 52.922 122.422 52.766C122.146 52.598 121.912 52.358 121.72 52.046L114.358 42.434C114.13 42.11 113.866 41.882 113.566 41.75C113.266 41.618 112.834 41.552 112.27 41.552H110.74V53H105.898V26.972H110.74V37.88ZM144.874 34.532V53H142.156C141.568 53 141.196 52.73 141.04 52.19L140.734 50.714C139.978 51.482 139.144 52.106 138.232 52.586C137.32 53.054 136.246 53.288 135.01 53.288C134.002 53.288 133.108 53.12 132.328 52.784C131.56 52.436 130.912 51.95 130.384 51.326C129.856 50.702 129.454 49.964 129.178 49.112C128.914 48.248 128.782 47.3 128.782 46.268V34.532H133.228V46.268C133.228 47.396 133.486 48.272 134.002 48.896C134.53 49.508 135.316 49.814 136.36 49.814C137.128 49.814 137.848 49.646 138.52 49.31C139.192 48.962 139.828 48.488 140.428 47.888V34.532H144.874ZM153.782 26.252V53H149.336V26.252H153.782ZM164.368 53.288C162.76 53.288 161.524 52.838 160.66 51.938C159.808 51.026 159.382 49.772 159.382 48.176V37.862H157.492C157.252 37.862 157.048 37.784 156.88 37.628C156.712 37.472 156.628 37.238 156.628 36.926V35.162L159.598 34.676L160.534 29.636C160.594 29.396 160.708 29.21 160.876 29.078C161.044 28.946 161.26 28.88 161.524 28.88H163.828V34.694H168.76V37.862H163.828V47.87C163.828 48.446 163.966 48.896 164.242 49.22C164.53 49.544 164.92 49.706 165.412 49.706C165.688 49.706 165.916 49.676 166.096 49.616C166.288 49.544 166.45 49.472 166.582 49.4C166.726 49.328 166.852 49.262 166.96 49.202C167.068 49.13 167.176 49.094 167.284 49.094C167.416 49.094 167.524 49.13 167.608 49.202C167.692 49.262 167.782 49.358 167.878 49.49L169.21 51.65C168.562 52.19 167.818 52.598 166.978 52.874C166.138 53.15 165.268 53.288 164.368 53.288ZM187.518 34.532V53H184.8C184.212 53 183.84 52.73 183.684 52.19L183.378 50.714C182.622 51.482 181.788 52.106 180.876 52.586C179.964 53.054 178.89 53.288 177.654 53.288C176.646 53.288 175.752 53.12 174.972 52.784C174.204 52.436 173.556 51.95 173.028 51.326C172.5 50.702 172.098 49.964 171.822 49.112C171.558 48.248 171.426 47.3 171.426 46.268V34.532H175.872V46.268C175.872 47.396 176.13 48.272 176.646 48.896C177.174 49.508 177.96 49.814 179.004 49.814C179.772 49.814 180.492 49.646 181.164 49.31C181.836 48.962 182.472 48.488 183.072 47.888V34.532H187.518ZM196.12 37.736C196.696 36.632 197.38 35.768 198.172 35.144C198.964 34.508 199.9 34.19 200.98 34.19C201.832 34.19 202.516 34.376 203.032 34.748L202.744 38.078C202.684 38.294 202.594 38.45 202.474 38.546C202.366 38.63 202.216 38.672 202.024 38.672C201.844 38.672 201.574 38.642 201.214 38.582C200.866 38.522 200.524 38.492 200.188 38.492C199.696 38.492 199.258 38.564 198.874 38.708C198.49 38.852 198.142 39.062 197.83 39.338C197.53 39.602 197.26 39.926 197.02 40.31C196.792 40.694 196.576 41.132 196.372 41.624V53H191.926V34.532H194.536C194.992 34.532 195.31 34.616 195.49 34.784C195.67 34.94 195.79 35.228 195.85 35.648L196.12 37.736ZM220.988 49.004V53H205.742V26.972H210.584V49.004H220.988ZM230.966 34.244C232.334 34.244 233.576 34.466 234.692 34.91C235.82 35.354 236.78 35.984 237.572 36.8C238.376 37.616 238.994 38.612 239.426 39.788C239.858 40.964 240.074 42.278 240.074 43.73C240.074 45.194 239.858 46.514 239.426 47.69C238.994 48.866 238.376 49.868 237.572 50.696C236.78 51.524 235.82 52.16 234.692 52.604C233.576 53.048 232.334 53.27 230.966 53.27C229.586 53.27 228.332 53.048 227.204 52.604C226.076 52.16 225.11 51.524 224.306 50.696C223.514 49.868 222.896 48.866 222.452 47.69C222.02 46.514 221.804 45.194 221.804 43.73C221.804 42.278 222.02 40.964 222.452 39.788C222.896 38.612 223.514 37.616 224.306 36.8C225.11 35.984 226.076 35.354 227.204 34.91C228.332 34.466 229.586 34.244 230.966 34.244ZM230.966 49.85C232.502 49.85 233.636 49.334 234.368 48.302C235.112 47.27 235.484 45.758 235.484 43.766C235.484 41.774 235.112 40.256 234.368 39.212C233.636 38.168 232.502 37.646 230.966 37.646C229.406 37.646 228.248 38.174 227.492 39.23C226.748 40.274 226.376 41.786 226.376 43.766C226.376 45.746 226.748 47.258 227.492 48.302C228.248 49.334 229.406 49.85 230.966 49.85ZM259.553 34.532L252.227 53H248.195L240.869 34.532H244.541C244.877 34.532 245.153 34.61 245.369 34.766C245.597 34.922 245.747 35.12 245.819 35.36L249.383 45.224C249.575 45.8 249.743 46.364 249.887 46.916C250.031 47.468 250.157 48.02 250.265 48.572C250.385 48.02 250.517 47.468 250.661 46.916C250.805 46.364 250.979 45.8 251.183 45.224L254.819 35.36C254.903 35.12 255.053 34.922 255.269 34.766C255.485 34.61 255.743 34.532 256.043 34.532H259.553ZM273.258 41.642C273.258 41.066 273.174 40.526 273.006 40.022C272.85 39.506 272.61 39.056 272.286 38.672C271.962 38.288 271.548 37.988 271.044 37.772C270.552 37.544 269.976 37.43 269.316 37.43C268.032 37.43 267.018 37.796 266.274 38.528C265.542 39.26 265.074 40.298 264.87 41.642H273.258ZM264.78 44.324C264.852 45.272 265.02 46.094 265.284 46.79C265.548 47.474 265.896 48.044 266.328 48.5C266.76 48.944 267.27 49.28 267.858 49.508C268.458 49.724 269.118 49.832 269.838 49.832C270.558 49.832 271.176 49.748 271.692 49.58C272.22 49.412 272.676 49.226 273.06 49.022C273.456 48.818 273.798 48.632 274.086 48.464C274.386 48.296 274.674 48.212 274.95 48.212C275.322 48.212 275.598 48.35 275.778 48.626L277.056 50.246C276.564 50.822 276.012 51.308 275.4 51.704C274.788 52.088 274.146 52.4 273.474 52.64C272.814 52.868 272.136 53.03 271.44 53.126C270.756 53.222 270.09 53.27 269.442 53.27C268.158 53.27 266.964 53.06 265.86 52.64C264.756 52.208 263.796 51.578 262.98 50.75C262.164 49.91 261.522 48.878 261.054 47.654C260.586 46.418 260.352 44.99 260.352 43.37C260.352 42.11 260.556 40.928 260.964 39.824C261.372 38.708 261.954 37.742 262.71 36.926C263.478 36.098 264.408 35.444 265.5 34.964C266.604 34.484 267.846 34.244 269.226 34.244C270.39 34.244 271.464 34.43 272.448 34.802C273.432 35.174 274.278 35.72 274.986 36.44C275.694 37.148 276.246 38.024 276.642 39.068C277.05 40.1 277.254 41.282 277.254 42.614C277.254 43.286 277.182 43.742 277.038 43.982C276.894 44.21 276.618 44.324 276.21 44.324H264.78Z" fill="#25FF00"/>
</svg>
