<svg width="93" height="80" viewBox="0 0 93 80" fill="none" xmlns="http://www.w3.org/2000/svg">
<path d="M66.9944 0C81.1352 0 92.6 11.4637 92.6 25.6C92.6 48.966 46.2988 80 46.2988 80C46.2988 80 0 50.0846 0 25.5998C0 7.99951 11.465 0 25.6031 0C34.1195 0 41.6423 4.17604 46.2988 10.5699C50.956 4.17604 58.4801 0 66.9944 0Z" fill="#25FF00"/>
<path d="M40 17.4584H41.5556V18.9167H40V24.75H41.5556V26.2084H40V27.6667L54 27.6667V26.2084H52.4444V24.75L54 24.75V18.9167H52.4444V17.4584H54V16H40V17.4584ZM50.8889 24.75V26.2084H49.3333V24.75H50.8889ZM47.7778 24.75V26.2084H46.2222V24.75H47.7778ZM44.6667 24.75V26.2084H43.1111V24.75H44.6667ZM50.8889 17.4584V18.9167H49.3333V17.4584H50.8889ZM47.7778 17.4584V18.9167H46.2222V17.4584H47.7778ZM44.6667 17.4584V18.9167H43.1111V17.4584H44.6667Z" fill="white"/>
<path d="M68.854 11.1H65.746C65.41 10.729 65.2 10.239 65.2 9.70001C65.2 8.53801 66.138 7.60001 67.3 7.60001C68.462 7.60001 69.4 8.53801 69.4 9.70001C69.4 10.239 69.19 10.729 68.854 11.1ZM73.6 7.60001C75.147 7.60001 76.4 8.85301 76.4 10.4V21.6H75V10.4C75 9.63001 74.37 9.00001 73.6 9.00001C72.83 9.00001 72.2 9.63001 72.2 10.4V18.8C72.2 20.347 70.947 21.6 69.4 21.6C67.853 21.6 66.6 20.347 66.6 18.8H65.9L65.2 11.8H69.4L68.7 18.8H68C68 19.57 68.63 20.2 69.4 20.2C70.17 20.2 70.8 19.57 70.8 18.8V10.4C70.8 8.85301 72.053 7.60001 73.6 7.60001Z" fill="white"/>
<path d="M20 42.0182L25.7273 34H13L18.7273 42.0182V46.7273H16.8182V48H21.9091V46.7273H20V42.0182ZM17.2891 37.8182L15.4691 35.2727H23.2455L21.4382 37.8182H17.2891Z" fill="white"/>
<path d="M29.5455 34H28.2727V43.2655C27.8909 43.0491 27.4709 42.9091 27 42.9091C25.6 42.9091 24.4546 44.0545 24.4546 45.4545C24.4546 46.8545 25.6 48 27 48C28.4 48 29.5455 46.8545 29.5455 45.4545V36.5455H32.0909V34H29.5455Z" fill="white"/>
<path d="M47.0909 54H45.8182V63.2655C45.4364 63.0491 45.0164 62.9091 44.5455 62.9091C43.1455 62.9091 42 64.0545 42 65.4545C42 66.8545 43.1455 68 44.5455 68C45.9455 68 47.0909 66.8545 47.0909 65.4545V56.5455H49.6364V54H47.0909Z" fill="white"/>
<path d="M76.6609 41C76.6609 40.43 76.5809 39.88 76.4309 39.36C76.9409 38.9 77.0809 38.12 76.7209 37.5C76.3609 36.88 75.6209 36.61 74.9609 36.82C74.2009 36.03 73.2209 35.46 72.1209 35.18C71.9809 34.51 71.3809 34 70.6609 34C69.9409 34 69.3409 34.51 69.1909 35.19C68.1009 35.46 67.1209 36.04 66.3609 36.82C65.7009 36.61 64.9609 36.88 64.6009 37.5C64.2409 38.12 64.3809 38.9 64.8909 39.36C64.7409 39.88 64.6609 40.43 64.6609 41C64.6609 41.57 64.7409 42.12 64.8909 42.64C64.3809 43.1 64.2409 43.88 64.6009 44.5C64.9609 45.12 65.7009 45.39 66.3609 45.18C66.6609 45.49 66.9909 45.76 67.3509 46L66.4809 48H67.5709L68.2309 46.48C68.5409 46.62 68.8609 46.72 69.1909 46.81C69.3409 47.49 69.9409 48 70.6609 48C71.3809 48 71.9809 47.49 72.1309 46.81C72.4609 46.73 72.7809 46.62 73.0909 46.48L73.7509 48H74.8409L73.9709 46C74.3309 45.76 74.6609 45.48 74.9609 45.17C75.6209 45.38 76.3609 45.12 76.7209 44.49C77.0809 43.87 76.9409 43.09 76.4309 42.63C76.5809 42.12 76.6609 41.57 76.6609 41ZM71.9809 45.8C71.7309 45.33 71.2309 45 70.6609 45C70.0909 45 69.5909 45.33 69.3409 45.8C69.1009 45.73 68.8609 45.66 68.6309 45.56L69.8309 42.81C70.0809 42.93 70.3609 43 70.6609 43C70.9609 43 71.2409 42.93 71.4909 42.82L72.6909 45.57C72.4609 45.66 72.2209 45.73 71.9809 45.8ZM72.2909 42.15C72.5209 41.83 72.6609 41.43 72.6609 41C72.6609 39.9 71.7609 39 70.6609 39C69.5609 39 68.6609 39.9 68.6609 41C68.6609 41.43 68.8009 41.83 69.0309 42.15L67.7609 45.06C67.5509 44.91 67.3409 44.74 67.1509 44.56C67.4509 44.1 67.4909 43.5 67.2009 43C66.9109 42.5 66.3809 42.24 65.8409 42.26C65.7309 41.85 65.6609 41.44 65.6609 41C65.6609 40.56 65.7309 40.15 65.8409 39.74C66.3809 39.76 66.9109 39.5 67.2009 39C67.4909 38.5 67.4509 37.9 67.1609 37.44C67.7609 36.85 68.5109 36.43 69.3509 36.2C69.5909 36.67 70.0909 37 70.6609 37C71.2309 37 71.7309 36.67 71.9809 36.2C72.8109 36.43 73.5709 36.85 74.1709 37.44C73.8709 37.9 73.8309 38.5 74.1209 39C74.4109 39.5 74.9409 39.76 75.4809 39.74C75.5909 40.15 75.6609 40.56 75.6609 41C75.6609 41.44 75.5909 41.85 75.4809 42.26C74.9409 42.24 74.4109 42.5 74.1209 43C73.8309 43.5 73.8709 44.1 74.1609 44.56C73.9709 44.74 73.7709 44.91 73.5509 45.06L72.2909 42.15Z" fill="white"/>
<path fill-rule="evenodd" clip-rule="evenodd" d="M22.4615 8V12.3077H23.5385H24.6154V13.3846V13.9985C24.9061 13.6323 25.52 13.3846 26.2308 13.3846C27.2215 13.3846 28.0292 13.8692 28.0292 14.4615H24.6154V16.2385C25.1108 16.4754 25.6492 16.6154 26.2308 16.6154C28.3092 16.6154 30 14.9246 30 12.8462V8H22.4615ZM24.6154 12.0385C24.1738 12.0385 23.8077 11.6723 23.8077 11.2308C23.8077 10.7892 24.1738 10.4231 24.6154 10.4231C25.0569 10.4231 25.4231 10.7892 25.4231 11.2308C25.4231 11.6723 25.0569 12.0385 24.6154 12.0385ZM27.8461 12.0385C27.4046 12.0385 27.0385 11.6723 27.0385 11.2308C27.0385 10.7892 27.4046 10.4231 27.8461 10.4231C28.2877 10.4231 28.6538 10.7892 28.6538 11.2308C28.6538 11.6723 28.2877 12.0385 27.8461 12.0385Z" fill="white"/>
<path fill-rule="evenodd" clip-rule="evenodd" d="M16 18.2307C16 20.3092 17.6908 22 19.7692 22C21.8477 22 23.5385 20.3092 23.5385 18.2307V13.3846H16V18.2307ZM19.7692 19.8461C18.7785 19.8461 17.9708 19.3615 17.9708 18.7692H21.5569C21.5677 19.3615 20.76 19.8461 19.7692 19.8461ZM21.3846 15.8077C21.8262 15.8077 22.1923 16.1738 22.1923 16.6154C22.1923 17.0569 21.8262 17.423 21.3846 17.423C20.9431 17.423 20.5769 17.0569 20.5769 16.6154C20.5769 16.1738 20.9431 15.8077 21.3846 15.8077ZM18.1538 15.8077C18.5954 15.8077 18.9615 16.1738 18.9615 16.6154C18.9615 17.0569 18.5954 17.423 18.1538 17.423C17.7123 17.423 17.3462 17.0569 17.3462 16.6154C17.3462 16.1738 17.7123 15.8077 18.1538 15.8077Z" fill="white"/>
</svg>
