<svg width="61" height="45" viewBox="0 0 61 45" fill="none" xmlns="http://www.w3.org/2000/svg">
<path d="M44.024 0.454224C53.3163 0.454224 60.8502 6.69606 60.8502 14.3931C60.8502 27.1157 30.4243 44.0134 30.4243 44.0134C30.4243 44.0134 0 27.7247 0 14.393C0 4.80987 7.53401 0.454224 16.8245 0.454224C22.4209 0.454224 27.3644 2.72803 30.4243 6.20939C33.4847 2.72803 38.429 0.454224 44.024 0.454224Z" fill="#E60505"/>
<path d="M26.2852 9.9601H27.3074V10.7542H26.2852V13.9303H27.3074V14.7244H26.2852V15.5184L35.485 15.5184V14.7244H34.4628V13.9303H35.485V10.7542H34.4628V9.9601H35.485V9.16606H26.2852V9.9601ZM33.4406 13.9303V14.7244H32.4184V13.9303H33.4406ZM31.3962 13.9303V14.7244H30.374V13.9303H31.3962ZM29.3518 13.9303V14.7244H28.3296V13.9303H29.3518ZM33.4406 9.9601V10.7542H32.4184V9.9601H33.4406ZM31.3962 9.9601V10.7542H30.374V9.9601H31.3962ZM29.3518 9.9601V10.7542H28.3296V9.9601H29.3518Z" fill="white"/>
<path d="M45.246 6.498H43.2036C42.9828 6.29599 42.8448 6.02919 42.8448 5.73571C42.8448 5.10302 43.4612 4.59229 44.2248 4.59229C44.9884 4.59229 45.6048 5.10302 45.6048 5.73571C45.6048 6.02919 45.4668 6.29599 45.246 6.498ZM48.3647 4.59229C49.3813 4.59229 50.2047 5.27453 50.2047 6.11686V12.2151H49.2847V6.11686C49.2847 5.6976 48.8707 5.35457 48.3647 5.35457C47.8588 5.35457 47.4448 5.6976 47.4448 6.11686V10.6906C47.4448 11.5329 46.6214 12.2151 45.6048 12.2151C44.5882 12.2151 43.7648 11.5329 43.7648 10.6906H43.3048L42.8448 6.87914H45.6048L45.1448 10.6906H44.6848C44.6848 11.1098 45.0988 11.4529 45.6048 11.4529C46.1108 11.4529 46.5248 11.1098 46.5248 10.6906V6.11686C46.5248 5.27453 47.3482 4.59229 48.3647 4.59229Z" fill="white"/>
<path d="M13.1426 23.3327L16.9062 18.9669H8.54272L12.3063 23.3327V25.8968H11.0518V26.5898H14.3971V25.8968H13.1426V23.3327ZM11.3612 21.0459L10.1652 19.6599H15.2753L14.0877 21.0459H11.3612Z" fill="white"/>
<path d="M19.4153 18.9669H18.579V24.0119C18.3281 23.894 18.0521 23.8178 17.7426 23.8178C16.8227 23.8178 16.0699 24.4415 16.0699 25.2038C16.0699 25.9661 16.8227 26.5898 17.7426 26.5898C18.6626 26.5898 19.4153 25.9661 19.4153 25.2038V20.3529H21.088V18.9669H19.4153Z" fill="white"/>
<path d="M30.9449 29.8567H30.1085V34.9016C29.8576 34.7838 29.5816 34.7076 29.2722 34.7076C28.3522 34.7076 27.5995 35.3313 27.5995 36.0936C27.5995 36.8558 28.3522 37.4795 29.2722 37.4795C30.1922 37.4795 30.9449 36.8558 30.9449 36.0936V31.2427H32.6176V29.8567H30.9449Z" fill="white"/>
<path d="M50.3762 22.7783C50.3762 22.468 50.3237 22.1685 50.2251 21.8854C50.5602 21.6349 50.6522 21.2102 50.4157 20.8726C50.1791 20.535 49.6928 20.388 49.2591 20.5024C48.7597 20.0722 48.1157 19.7619 47.3929 19.6094C47.3009 19.2446 46.9066 18.9669 46.4335 18.9669C45.9603 18.9669 45.566 19.2446 45.4675 19.6149C44.7512 19.7619 44.1072 20.0777 43.6078 20.5024C43.1741 20.388 42.6878 20.535 42.4513 20.8726C42.2147 21.2102 42.3067 21.6349 42.6418 21.8854C42.5433 22.1685 42.4907 22.468 42.4907 22.7783C42.4907 23.0887 42.5433 23.3882 42.6418 23.6713C42.3067 23.9218 42.2147 24.3465 42.4513 24.684C42.6878 25.0216 43.1741 25.1686 43.6078 25.0543C43.8049 25.2231 44.0218 25.3701 44.2584 25.5008L43.6867 26.5898H44.4029L44.8366 25.7621C45.0403 25.8384 45.2506 25.8928 45.4675 25.9418C45.566 26.3121 45.9603 26.5898 46.4335 26.5898C46.9066 26.5898 47.3009 26.3121 47.3994 25.9418C47.6163 25.8983 47.8266 25.8384 48.0303 25.7621L48.464 26.5898H49.1803L48.6086 25.5008C48.8451 25.3701 49.062 25.2176 49.2591 25.0489C49.6928 25.1632 50.1791 25.0216 50.4157 24.6786C50.6522 24.341 50.5602 23.9163 50.2251 23.6659C50.3237 23.3882 50.3762 23.0887 50.3762 22.7783ZM47.3009 25.3919C47.1366 25.136 46.808 24.9563 46.4335 24.9563C46.0589 24.9563 45.7303 25.136 45.566 25.3919C45.4083 25.3538 45.2506 25.3157 45.0995 25.2612L45.888 23.7639C46.0523 23.8292 46.2363 23.8673 46.4335 23.8673C46.6306 23.8673 46.8146 23.8292 46.9789 23.7693L47.7674 25.2667C47.6163 25.3157 47.4586 25.3538 47.3009 25.3919ZM47.5046 23.4045C47.6557 23.2303 47.7477 23.0125 47.7477 22.7783C47.7477 22.1794 47.1563 21.6894 46.4335 21.6894C45.7106 21.6894 45.1192 22.1794 45.1192 22.7783C45.1192 23.0125 45.2112 23.2303 45.3623 23.4045L44.5278 24.989C44.3898 24.9073 44.2518 24.8147 44.1269 24.7167C44.3241 24.4663 44.3504 24.1396 44.1598 23.8673C43.9692 23.5951 43.6209 23.4535 43.2661 23.4644C43.1938 23.2412 43.1478 23.0179 43.1478 22.7783C43.1478 22.5388 43.1938 22.3155 43.2661 22.0923C43.6209 22.1032 43.9692 21.9616 44.1598 21.6894C44.3504 21.4171 44.3241 21.0904 44.1335 20.84C44.5278 20.5187 45.0206 20.29 45.5726 20.1648C45.7303 20.4207 46.0589 20.6004 46.4335 20.6004C46.808 20.6004 47.1366 20.4207 47.3009 20.1648C47.8463 20.29 48.3457 20.5187 48.74 20.84C48.5428 21.0904 48.5166 21.4171 48.7071 21.6894C48.8977 21.9616 49.246 22.1032 49.6008 22.0923C49.6731 22.3155 49.7191 22.5388 49.7191 22.7783C49.7191 23.0179 49.6731 23.2412 49.6008 23.4644C49.246 23.4535 48.8977 23.5951 48.7071 23.8673C48.5166 24.1396 48.5428 24.4663 48.7334 24.7167C48.6086 24.8147 48.4771 24.9073 48.3326 24.989L47.5046 23.4045Z" fill="white"/>
<path fill-rule="evenodd" clip-rule="evenodd" d="M14.7601 4.81018V7.15567H15.4678H16.1755V7.74205V8.07628C16.3666 7.87691 16.7699 7.74205 17.237 7.74205C17.8881 7.74205 18.4188 8.00591 18.4188 8.32842H16.1755V9.29593C16.501 9.42494 16.8549 9.50117 17.237 9.50117C18.6028 9.50117 19.7139 8.58056 19.7139 7.44886V4.81018H14.7601ZM16.1755 7.00908C15.8853 7.00908 15.6447 6.80971 15.6447 6.5693C15.6447 6.32889 15.8853 6.12952 16.1755 6.12952C16.4656 6.12952 16.7062 6.32889 16.7062 6.5693C16.7062 6.80971 16.4656 7.00908 16.1755 7.00908ZM18.2985 7.00908C18.0084 7.00908 17.7678 6.80971 17.7678 6.5693C17.7678 6.32889 18.0084 6.12952 18.2985 6.12952C18.5887 6.12952 18.8293 6.32889 18.8293 6.5693C18.8293 6.80971 18.5887 7.00908 18.2985 7.00908Z" fill="white"/>
<path fill-rule="evenodd" clip-rule="evenodd" d="M10.514 10.3807C10.514 11.5124 11.6251 12.433 12.9909 12.433C14.3567 12.433 15.4678 11.5124 15.4678 10.3807V7.74207H10.514V10.3807ZM12.9909 11.2603C12.3398 11.2603 11.8091 10.9964 11.8091 10.6739H14.1657C14.1727 10.9964 13.642 11.2603 12.9909 11.2603ZM14.0524 9.0614C14.3426 9.0614 14.5832 9.26077 14.5832 9.50118C14.5832 9.7416 14.3426 9.94096 14.0524 9.94096C13.7623 9.94096 13.5217 9.7416 13.5217 9.50118C13.5217 9.26077 13.7623 9.0614 14.0524 9.0614ZM11.9294 9.0614C12.2195 9.0614 12.4601 9.26077 12.4601 9.50118C12.4601 9.7416 12.2195 9.94096 11.9294 9.94096C11.6392 9.94096 11.3986 9.7416 11.3986 9.50118C11.3986 9.26077 11.6392 9.0614 11.9294 9.0614Z" fill="white"/>
</svg>
